# xmcd CD database file
#
# Track frame offsets:
#	150
#	10858
#	38919
#	57067
#	68843
#	91238
#	106081
#
# Disc length: 1633 seconds
#
# Revision: 0
# Processed by: cddbd v1.5.2PL0 Copyright (c) Steve Scherf et al.
# Submitted via: CDex 1.51
#
DISCID=4b065f07
DTITLE=Tony Bennett - The Essential Tony Bennett [Disc 3]
DYEAR=2008
DGENRE=Jazz
TTITLE0=Lazy Afternoon
TTITLE1=Penthouse Serenade (When We're Alone)
TTITLE2=Lost In The Stars
TTITLE3=My Funny Valentine
TTITLE4=Danny Boy
TTITLE5=Quiet Nights of Quiet Stars (Corcovado)
TTITLE6=Country Girl
EXTD=YEAR: 2008
EXTT0=
EXTT1=
EXTT2=
EXTT3=
EXTT4=
EXTT5=
EXTT6=
PLAYORDER=
